<?xml version="1.0" encoding="UTF-8"?>
<!-- Generator: visioncortex VTracer 0.6.3 -->
<svg version="1.1" xmlns="http://www.w3.org/2000/svg" width="1280" height="720">
<path d="M0 0 C34.93 -0.01 69.87 -0.02 104.8 -0.03 C105.48 -0.03 106.17 -0.03 106.87 -0.03 C180.09 -0.05 253.32 -0.07 326.54 -0.08 C328.17 -0.08 329.79 -0.09 331.42 -0.09 C365.54 -0.09 399.67 -0.1 433.79 -0.1 C450.94 -0.1 468.08 -0.11 485.22 -0.11 C487.81 -0.11 490.39 -0.11 492.98 -0.11 C532.81 -0.12 572.64 -0.12 612.47 -0.14 C613.76 -0.14 613.76 -0.14 615.07 -0.14 C628.89 -0.14 642.7 -0.15 656.52 -0.15 C696.3 -0.16 736.08 -0.18 775.86 -0.18 C776.67 -0.18 777.49 -0.18 778.33 -0.18 C796.28 -0.18 814.22 -0.19 832.16 -0.19 C839.38 -0.19 846.6 -0.19 853.82 -0.19 C854.61 -0.19 855.4 -0.19 856.21 -0.19 C881.7 -0.19 907.18 -0.2 932.67 -0.21 C958.33 -0.22 983.98 -0.23 1009.64 -0.23 C1013.18 -0.23 1016.72 -0.23 1020.26 -0.23 C1020.96 -0.23 1021.65 -0.23 1022.37 -0.23 C1033.39 -0.23 1044.4 -0.23 1055.42 -0.24 C1066.24 -0.25 1077.06 -0.25 1087.88 -0.24 C1093.67 -0.24 1099.46 -0.24 1105.26 -0.25 C1110.52 -0.26 1115.78 -0.26 1121.04 -0.25 C1122.94 -0.25 1124.84 -0.25 1126.74 -0.25 C1129.3 -0.26 1131.87 -0.26 1134.43 -0.25 C1135.18 -0.25 1135.92 -0.26 1136.7 -0.26 C1141.77 -0.23 1141.77 -0.23 1144 2 C1145.86 2.59 1145.86 2.59 1147.75 3.19 C1153.1 5.08 1156.49 8.98 1159 14 C1159.28 19.14 1159.24 24.3 1159.24 29.45 C1159.24 30.22 1159.24 31 1159.24 31.81 C1159.23 48.52 1157.98 65.02 1156.4 81.65 C1156.04 85.46 1155.7 89.27 1155.35 93.09 C1154.94 97.61 1154.54 102.14 1154.12 106.67 C1153.36 114.93 1152.64 123.19 1152 131.47 C1151.9 132.8 1151.9 132.8 1151.8 134.15 C1151.56 137.29 1151.32 140.44 1151.09 143.59 C1149.54 165.01 1149.54 165.01 1141.5 172.25 C1135.2 176.66 1129.61 176.87 1122 176 C1115.79 173.78 1112.36 169.49 1109 164 C1105.02 152.06 1108.78 135.64 1109.81 123.31 C1109.99 121.08 1110.18 118.86 1110.36 116.63 C1111.18 106.57 1112.03 96.52 1112.93 86.47 C1113 85.67 1113.07 84.88 1113.15 84.06 C1113.47 80.45 1113.79 76.84 1114.14 73.23 C1116.18 58.85 1116.18 58.85 1114 45 C985.97 44.92 985.97 44.92 802.95 44.83 C801.4 44.83 799.85 44.83 798.3 44.83 C765.79 44.82 733.28 44.81 700.77 44.8 C684.44 44.79 668.11 44.79 651.78 44.78 C649.32 44.78 646.86 44.78 644.39 44.78 C606.45 44.77 568.51 44.75 530.56 44.73 C529.34 44.72 529.34 44.72 528.09 44.72 C514.93 44.71 501.77 44.71 488.61 44.7 C450.72 44.67 412.82 44.65 374.93 44.64 C374.15 44.64 373.37 44.64 372.57 44.63 C355.48 44.63 338.38 44.63 321.29 44.62 C314.41 44.62 307.54 44.62 300.66 44.62 C299.91 44.62 299.15 44.62 298.38 44.62 C274.1 44.62 249.83 44.6 225.55 44.57 C201.11 44.55 176.67 44.54 152.22 44.55 C148.85 44.55 145.48 44.55 142.1 44.55 C141.44 44.55 140.78 44.55 140.1 44.55 C128.97 44.55 117.83 44.54 106.7 44.52 C97.03 44.5 87.36 44.5 77.7 44.51 C72.18 44.52 66.66 44.52 61.14 44.5 C56.13 44.48 51.12 44.49 46.11 44.5 C44.3 44.51 42.49 44.5 40.68 44.49 C38.23 44.48 35.79 44.49 33.35 44.5 C32.28 44.49 32.28 44.49 31.2 44.47 C28 44.52 26.41 44.6 24.08 46.88 C22.79 49.42 22.45 51.43 22.19 54.28 C22.08 55.34 21.98 56.41 21.87 57.5 C21.72 59.24 21.72 59.24 21.57 61.01 C21.45 62.23 21.34 63.45 21.22 64.7 C20.97 67.32 20.73 69.95 20.5 72.58 C20.13 76.7 19.74 80.83 19.34 84.95 C18.43 94.58 17.54 104.21 16.65 113.84 C16 120.76 15.35 127.68 14.68 134.6 C14.38 137.69 14.1 140.78 13.82 143.88 C13.64 145.77 13.46 147.66 13.27 149.55 C13.2 150.38 13.13 151.21 13.06 152.07 C12.37 158.85 10.46 165.13 5.96 170.38 C4.96 171.18 4.96 171.18 3.94 172 C3.27 172.56 2.59 173.11 1.9 173.69 C-3.28 177.26 -10 176.73 -16 176 C-21.98 173.51 -25.98 169.66 -29 164 C-32.56 153.32 -29.29 139.3 -28.12 128.31 C-27.95 126.6 -27.77 124.88 -27.6 123.17 C-26.76 115.01 -25.88 106.85 -24.96 98.7 C-24.06 90.64 -23.26 82.57 -22.5 74.5 C-21.63 65.41 -20.75 56.32 -19.7 47.25 C-19.26 43.43 -18.87 39.62 -18.54 35.79 C-18.46 34.9 -18.38 34.01 -18.3 33.09 C-18.15 31.39 -18 29.69 -17.87 27.98 C-17.11 19.54 -15.29 12.02 -9 6 C-6.09 4.15 -3.1 2.52 0 1 C0 0.67 0 0.34 0 0 Z " fill="#00AAEA" transform="translate(93,93)"/>
<path d="M0 0 C3.97 3.25 7.42 7.05 9 12 C9.78 21.72 8.59 31.46 7.46 41.1 C7.18 43.49 6.91 45.89 6.65 48.28 C5.93 54.74 5.21 61.2 4.47 67.65 C4.06 71.26 3.66 74.87 3.28 78.48 C3.07 80.46 2.83 82.44 2.6 84.42 C2.48 85.61 2.35 86.8 2.22 88.03 C2.11 89.07 1.99 90.11 1.87 91.17 C2.03 94.75 2.72 96.24 5 99 C7.67 99.51 9.71 99.67 12.38 99.62 C13.53 99.63 13.53 99.63 14.7 99.64 C17.28 99.66 19.86 99.64 22.45 99.62 C24.31 99.63 26.18 99.64 28.05 99.64 C33.22 99.66 38.4 99.65 43.57 99.63 C49.19 99.62 54.8 99.63 60.41 99.64 C70.26 99.66 80.11 99.65 89.97 99.64 C100.54 99.62 111.11 99.61 121.69 99.62 C122.35 99.62 123.02 99.62 123.71 99.62 C127.11 99.62 130.51 99.63 133.91 99.63 C158.55 99.65 183.19 99.64 207.83 99.62 C232.24 99.6 256.65 99.59 281.05 99.59 C282.59 99.59 284.12 99.59 285.65 99.59 C291.8 99.59 297.96 99.59 304.11 99.59 C321.31 99.59 338.51 99.59 355.72 99.59 C356.5 99.59 357.28 99.59 358.09 99.59 C383.06 99.59 408.04 99.58 433.01 99.57 C434.23 99.57 434.23 99.57 435.47 99.56 C448.63 99.56 461.78 99.55 474.94 99.54 C527.14 99.51 579.34 99.49 631.53 99.5 C633.18 99.5 634.83 99.5 636.48 99.5 C638.95 99.5 641.42 99.5 643.9 99.5 C652.93 99.5 661.96 99.5 670.99 99.51 C671.8 99.51 672.61 99.51 673.44 99.51 C717.13 99.51 760.83 99.5 804.52 99.49 C806.06 99.49 807.6 99.48 809.14 99.48 C809.9 99.48 810.66 99.48 811.44 99.48 C812.98 99.48 814.52 99.48 816.05 99.48 C819.88 99.48 823.7 99.48 827.53 99.48 C844.31 99.47 861.1 99.47 877.88 99.47 C878.64 99.47 879.4 99.47 880.18 99.47 C883.99 99.47 887.8 99.47 891.62 99.47 C919.14 99.47 946.66 99.46 974.19 99.44 C976.9 99.44 979.6 99.43 982.31 99.43 C982.98 99.43 983.64 99.43 984.33 99.43 C995.52 99.42 1006.71 99.42 1017.9 99.43 C1027.61 99.43 1037.33 99.42 1047.04 99.41 C1052.59 99.4 1058.14 99.39 1063.68 99.4 C1068.72 99.41 1073.76 99.41 1078.79 99.39 C1080.61 99.38 1082.43 99.39 1084.25 99.39 C1086.71 99.4 1089.16 99.39 1091.62 99.38 C1092.69 99.39 1092.69 99.39 1093.78 99.4 C1096.63 99.37 1098.55 99.32 1100.93 97.66 C1102.62 95.04 1102.62 92.56 1102.86 89.47 C1102.92 88.81 1102.97 88.15 1103.03 87.47 C1103.21 85.29 1103.37 83.11 1103.54 80.92 C1103.66 79.39 1103.78 77.86 1103.91 76.33 C1104.24 72.3 1104.56 68.26 1104.87 64.22 C1105.37 57.8 1105.89 51.38 1106.41 44.96 C1106.59 42.74 1106.76 40.52 1106.94 38.3 C1109.29 8.23 1109.29 8.23 1115.9 2.29 C1121.74 -2.34 1126.47 -3.71 1134 -3 C1140.17 -1.83 1143.57 1.14 1147.55 5.87 C1154.05 15.45 1150.73 28.59 1149.76 39.47 C1149.63 40.96 1149.5 42.46 1149.37 43.95 C1149.03 47.86 1148.68 51.78 1148.34 55.69 C1147.79 61.88 1147.25 68.07 1146.71 74.26 C1146.51 76.53 1146.31 78.8 1146.11 81.06 C1145.51 87.94 1144.93 94.81 1144.43 101.69 C1144.34 102.87 1144.26 104.05 1144.17 105.26 C1144.02 107.41 1143.87 109.56 1143.73 111.71 C1142.47 129.5 1142.47 129.5 1137.31 134.94 C1136.67 135.65 1136.03 136.36 1135.36 137.09 C1129.89 141.52 1124.64 142.44 1117.75 142.38 C1116.94 142.38 1116.13 142.39 1115.3 142.39 C1112.58 142.4 1109.87 142.39 1107.15 142.38 C1105.18 142.38 1103.21 142.39 1101.24 142.39 C1095.79 142.41 1090.35 142.4 1084.91 142.39 C1079 142.38 1073.08 142.4 1067.17 142.4 C1056.8 142.42 1046.43 142.42 1036.06 142.41 C1024.93 142.4 1013.8 142.4 1002.67 142.41 C1001.97 142.41 1001.27 142.41 1000.54 142.41 C997.68 142.42 994.82 142.42 991.96 142.42 C962.9 142.44 933.84 142.44 904.78 142.44 C900.76 142.44 896.75 142.44 892.73 142.44 C891.93 142.44 891.13 142.44 890.31 142.44 C872.64 142.43 854.97 142.44 837.3 142.44 C834.88 142.44 832.46 142.44 830.04 142.44 C823.56 142.44 817.08 142.44 810.6 142.45 C765.35 142.46 720.09 142.46 674.84 142.45 C673.99 142.45 673.14 142.45 672.26 142.45 C662.74 142.45 653.23 142.45 643.71 142.45 C642.86 142.45 642 142.45 641.11 142.45 C634.14 142.45 634.14 142.45 630.69 142.45 C575.74 142.44 520.79 142.44 465.83 142.47 C451.99 142.47 438.14 142.48 424.29 142.48 C423.44 142.48 422.59 142.48 421.71 142.49 C395.44 142.5 369.17 142.5 342.9 142.5 C341.66 142.5 341.66 142.5 340.4 142.5 C322.3 142.5 304.2 142.5 286.1 142.5 C279.62 142.5 273.15 142.5 266.67 142.5 C265.06 142.5 263.45 142.5 261.84 142.5 C236.15 142.49 210.46 142.5 184.77 142.52 C158.19 142.53 131.6 142.53 105.02 142.51 C102.16 142.51 99.31 142.51 96.46 142.51 C95.76 142.51 95.06 142.51 94.34 142.51 C83.24 142.5 72.14 142.51 61.04 142.52 C50.13 142.53 39.22 142.53 28.32 142.51 C22.48 142.5 16.64 142.5 10.8 142.52 C5.5 142.53 0.19 142.53 -5.11 142.51 C-7.03 142.5 -8.94 142.51 -10.85 142.52 C-13.44 142.53 -16.03 142.52 -18.62 142.5 C-19.36 142.51 -20.1 142.52 -20.86 142.53 C-27.09 142.44 -32.17 140.37 -36.95 136.36 C-41.37 130.88 -45.11 125.12 -46 118 C-45.34 118 -44.68 118 -44 118 C-41.63 100.3 -39.6 82.59 -37.94 64.81 C-37.77 63.02 -37.6 61.22 -37.43 59.42 C-36.74 52.06 -36.06 44.69 -35.41 37.31 C-35.23 35.29 -35.04 33.26 -34.85 31.23 C-34.63 28.84 -34.41 26.45 -34.21 24.05 C-33.41 15.69 -32 7.45 -25.62 1.5 C-17.76 -4.41 -8.53 -4.57 0 0 Z " fill="#00AAEA" transform="translate(74,440)"/>
<path d="M0 0 C15.84 0 31.68 0 48 0 C53.78 10.99 59.53 21.93 65.03 33.05 C66.01 35.02 67 36.99 67.99 38.95 C71.73 46.37 75.38 53.82 78.86 61.36 C82.01 68.14 85.39 74.81 88.74 81.49 C91.16 86.3 93.56 91.12 95.97 95.94 C97.05 98.09 98.12 100.24 99.2 102.4 C107.13 118.27 115.07 134.13 123 150 C123.66 150 124.32 150 125 150 C126.73 147.7 128.35 145.4 129.94 143 C130.94 141.52 131.94 140.04 132.94 138.56 C133.7 137.42 133.7 137.42 134.48 136.25 C136.78 132.84 139.11 129.45 141.44 126.06 C142.11 125.08 142.11 125.08 142.8 124.07 C148.62 115.62 154.55 107.26 160.49 98.9 C166.21 90.84 171.88 82.74 177.44 74.56 C182.26 67.47 187.22 60.49 192.26 53.56 C196.23 48.09 200.09 42.55 203.9 36.97 C207.25 32.08 210.64 27.22 214.06 22.38 C214.51 21.74 214.95 21.11 215.41 20.46 C216.36 19.12 217.33 17.8 218.32 16.49 C219.7 14.45 220.69 12.59 221.73 10.39 C223.88 6.24 226.03 2.61 230 0 C237.91 -2.31 246.51 -1.31 254.62 -0.88 C256.89 -0.8 259.16 -0.74 261.43 -0.68 C266.96 -0.53 272.48 -0.3 278 0 C278.81 3.44 279.05 6.27 278.66 9.77 C278.56 10.7 278.46 11.64 278.35 12.6 C278.23 13.61 278.12 14.62 278 15.66 C277.88 16.74 277.76 17.82 277.64 18.92 C277.38 21.26 277.12 23.6 276.85 25.94 C276.14 32.27 275.45 38.6 274.75 44.93 C274.61 46.26 274.46 47.59 274.31 48.92 C272.74 63.19 271.31 77.47 269.88 91.75 C268.19 108.48 266.46 125.2 264.57 141.91 C263.31 153.01 262.19 164.13 261.15 175.26 C260.03 186.96 258.74 198.63 257.41 210.31 C256.4 219.26 255.43 228.21 254.68 237.19 C254.29 241.57 253.43 244.71 252 249 C234.18 249 216.36 249 198 249 C197.05 245.21 197.02 243.2 197.43 239.41 C197.55 238.27 197.68 237.14 197.8 235.97 C197.94 234.73 198.08 233.49 198.22 232.21 C198.44 230.21 198.65 228.21 198.87 226.21 C199.1 224.07 199.34 221.94 199.57 219.8 C200.07 215.36 200.55 210.92 201.03 206.47 C201.19 204.96 201.35 203.46 201.52 201.95 C201.6 201.2 201.68 200.44 201.76 199.67 C202.01 197.37 202.26 195.06 202.51 192.76 C203.63 182.5 204.71 172.23 205.77 161.96 C205.84 161.29 205.91 160.62 205.98 159.93 C206.57 154.14 207.17 148.35 207.76 142.55 C208.12 139.05 208.48 135.55 208.84 132.05 C208.99 130.52 208.99 130.52 209.15 128.95 C209.56 124.98 209.99 121.04 210.57 117.09 C210.93 114.52 211.11 112.15 211.06 109.56 C211.03 107.8 211.03 107.8 211 106 C210.5 106.73 210.5 106.73 210 107.47 C202.59 118.36 195.1 129.17 187.48 139.91 C184.98 143.43 182.49 146.97 180 150.5 C179.01 151.91 178.01 153.32 177.02 154.72 C176.53 155.42 176.03 156.12 175.52 156.84 C173.96 159.06 172.39 161.28 170.82 163.5 C170.3 164.24 169.77 164.98 169.23 165.75 C168.25 167.15 167.26 168.54 166.27 169.94 C163.1 174.44 159.93 178.95 156.78 183.46 C155.07 185.9 153.35 188.35 151.64 190.79 C150.51 192.4 149.38 194.01 148.25 195.62 C147.65 196.48 147.05 197.33 146.43 198.21 C143.5 202.4 140.59 206.59 137.72 210.82 C137.22 211.56 136.71 212.3 136.19 213.06 C135.25 214.45 134.31 215.84 133.38 217.24 C130.22 221.89 130.22 221.89 128 223 C123.69 223.3 119.38 223.28 115.06 223.31 C113.86 223.34 112.65 223.37 111.41 223.4 C109.68 223.41 109.68 223.41 107.91 223.43 C106.32 223.45 106.32 223.45 104.7 223.47 C102 223 102 223 100.24 221.19 C98.43 217.98 96.89 214.67 95.38 211.31 C92.59 205.27 89.66 199.35 86.5 193.5 C83.49 187.91 80.66 182.27 78 176.5 C74.99 169.98 71.75 163.63 68.36 157.31 C64.77 150.61 61.37 143.82 58 137.01 C56.28 133.54 54.54 130.08 52.81 126.62 C52.19 125.39 51.58 124.15 50.96 122.91 C50.3 121.61 49.65 120.3 49 119 C47.33 115.67 45.67 112.33 44 109 C41.24 132.24 38.77 155.52 36.27 178.79 C35.82 183 35.37 187.2 34.92 191.41 C34.37 196.51 33.82 201.61 33.28 206.71 C33.18 207.65 33.08 208.59 32.97 209.56 C32.78 211.39 32.58 213.22 32.38 215.06 C32.2 216.81 32.01 218.56 31.82 220.31 C31.34 224.7 30.89 229.09 30.48 233.48 C30.4 234.36 30.32 235.23 30.23 236.14 C30.07 237.81 29.92 239.48 29.77 241.15 C29.22 246.78 29.22 246.78 27 249 C24.71 249.24 24.71 249.24 21.82 249.23 C20.73 249.23 19.65 249.23 18.54 249.23 C17.37 249.22 16.2 249.21 14.99 249.2 C13.8 249.19 12.6 249.19 11.37 249.19 C7.54 249.18 3.71 249.15 -0.12 249.12 C-2.72 249.11 -5.31 249.11 -7.9 249.1 C-14.27 249.08 -20.63 249.04 -27 249 C-26.47 234.4 -25.31 219.96 -23.69 205.44 C-23.46 203.36 -23.24 201.29 -23.01 199.22 C-22.45 194.08 -21.88 188.95 -21.31 183.81 C-20.95 180.56 -20.59 177.3 -20.23 174.05 C-19.67 169 -19.11 163.96 -18.55 158.91 C-17.25 147.26 -15.97 135.6 -14.7 123.94 C-14.59 122.96 -14.49 121.98 -14.38 120.97 C-12.8 106.46 -11.25 91.95 -9.72 77.44 C-9.07 71.34 -8.43 65.25 -7.78 59.16 C-7.23 53.99 -6.69 48.83 -6.15 43.66 C-5.61 38.52 -5.07 33.37 -4.52 28.23 C-4.31 26.3 -4.11 24.38 -3.91 22.45 C-3.64 19.8 -3.35 17.14 -3.07 14.49 C-2.95 13.32 -2.95 13.32 -2.83 12.14 C-2.34 7.71 -1.44 4.32 0 0 Z " fill="#005998" transform="translate(270,213)"/>
<path d="M0 0 C0.99 0.19 0.99 0.19 2.01 0.39 C21.99 4.35 38.99 12.29 55 25 C55.68 25.54 56.36 26.08 57.07 26.63 C61.38 30.17 66.17 34.16 69 39 C69.05 41.42 69.05 41.42 68 44 C66.08 45.94 64.25 47.57 62.12 49.25 C61.54 49.73 60.95 50.21 60.34 50.7 C58.57 52.15 56.79 53.57 55 55 C53.19 56.48 51.37 57.96 49.56 59.44 C48.25 60.5 48.25 60.5 46.91 61.58 C44.67 63.44 42.5 65.32 40.34 67.26 C39.72 67.82 39.09 68.38 38.44 68.95 C37.21 70.05 35.98 71.16 34.77 72.28 C33.07 73.79 33.07 73.79 30 76 C27.96 75.83 27.96 75.83 26 75 C24.79 73.51 24.79 73.51 23.56 72 C13.34 59.43 -4.96 51.3 -20.74 49.6 C-24.56 49.43 -28.36 49.39 -32.19 49.44 C-32.86 49.44 -33.54 49.45 -34.23 49.45 C-56.96 49.68 -77.01 56.52 -94 72 C-94.91 72.77 -94.91 72.77 -95.84 73.56 C-112.94 89.08 -119.19 113.38 -121.22 135.42 C-121.96 152.6 -114.83 170.04 -104 183.06 C-90.18 197.84 -71.75 202.87 -52.09 203.96 C-39.62 204.25 -27.81 201.81 -16 198 C-12.67 196.99 -9.34 195.99 -6 195 C-5.58 190.99 -5.15 186.97 -4.73 182.96 C-4.37 179.51 -4 176.06 -3.64 172.62 C-2.78 164.49 -1.93 156.36 -1.14 148.23 C-1.01 146.9 -0.87 145.58 -0.74 144.25 C-0.5 141.8 -0.27 139.36 -0.04 136.91 C0.12 135.27 0.12 135.27 0.29 133.59 C0.38 132.65 0.47 131.71 0.56 130.74 C1 128 1 128 3 122 C20.49 122 37.98 122 56 122 C56 127.72 55.92 132.82 55.3 138.42 C55.22 139.1 55.15 139.79 55.07 140.49 C54.83 142.72 54.57 144.95 54.32 147.18 C54.15 148.76 53.97 150.34 53.8 151.91 C53.34 156.06 52.87 160.21 52.41 164.35 C51.85 169.32 51.3 174.3 50.75 179.27 C50.31 183.25 49.86 187.23 49.4 191.21 C48.67 197.59 47.96 203.94 47.58 210.34 C46.87 221.73 46.87 221.73 44.44 225.26 C42.37 226.94 40.44 227.94 38 229 C36.46 229.9 34.93 230.8 33.4 231.71 C5.07 247 -25.38 255.5 -57.69 255.31 C-58.38 255.31 -59.08 255.31 -59.79 255.3 C-93.74 255.12 -125.67 245.57 -150 221 C-150.8 220.22 -151.61 219.43 -152.44 218.62 C-172.94 197.62 -182.41 168.75 -182.3 139.69 C-181.45 103.13 -166.97 69.41 -142 43 C-141.25 42.19 -140.51 41.38 -139.74 40.54 C-105.42 4.52 -48.13 -9.86 0 0 Z " fill="#005998" transform="translate(773,211)"/>
<path d="M0 0 C1.01 0 2.01 0 3.05 0 C4.18 0 5.32 -0 6.49 -0.01 C7.73 0 8.96 0.01 10.23 0.02 C12.12 0.02 12.12 0.02 14.05 0.02 C16.72 0.02 19.38 0.03 22.05 0.04 C25.48 0.06 28.9 0.06 32.33 0.06 C35.59 0.06 38.85 0.07 42.11 0.08 C43.96 0.08 43.96 0.08 45.85 0.08 C47.55 0.09 47.55 0.09 49.29 0.1 C50.29 0.11 51.3 0.11 52.33 0.11 C54.6 0.25 54.6 0.25 55.6 1.25 C55.54 3.02 55.41 4.78 55.24 6.55 C55.09 8.19 55.09 8.19 54.94 9.86 C54.83 10.98 54.72 12.09 54.6 13.25 C54.46 14.73 54.46 14.73 54.31 16.24 C54 19.32 53.69 22.38 53.37 25.45 C53.25 26.6 53.13 27.74 53.01 28.92 C52.63 32.63 52.24 36.35 51.85 40.06 C51.58 42.66 51.31 45.26 51.04 47.86 C47.98 77.33 44.89 106.8 41.6 136.25 C39.2 157.91 36.91 179.58 34.6 201.25 C75.19 201.25 115.78 201.25 157.6 201.25 C156.99 212.31 156.34 223.25 155.16 234.25 C155.04 235.48 154.92 236.72 154.8 238 C154.61 239.76 154.61 239.76 154.42 241.56 C154.31 242.61 154.2 243.66 154.09 244.74 C153.6 247.25 153.6 247.25 151.6 249.25 C149.19 249.44 146.9 249.51 144.49 249.49 C143.75 249.49 143.01 249.49 142.25 249.49 C139.75 249.5 137.26 249.49 134.76 249.47 C132.98 249.47 131.19 249.47 129.41 249.48 C124.56 249.48 119.7 249.46 114.85 249.45 C109.78 249.44 104.72 249.44 99.65 249.43 C90.05 249.43 80.45 249.41 70.84 249.39 C59.92 249.37 48.99 249.36 38.06 249.35 C15.57 249.33 -6.91 249.29 -29.4 249.25 C-30.14 246.05 -30.49 243.35 -30.13 240.09 C-30.05 239.29 -29.97 238.5 -29.88 237.67 C-29.78 236.81 -29.68 235.95 -29.58 235.06 C-29.48 234.14 -29.38 233.22 -29.28 232.27 C-28.95 229.21 -28.61 226.16 -28.26 223.1 C-28.03 220.93 -27.79 218.76 -27.56 216.6 C-26.93 210.85 -26.3 205.11 -25.66 199.36 C-25.03 193.7 -24.41 188.05 -23.8 182.39 C-23.06 175.67 -22.33 168.95 -21.59 162.23 C-18.53 134.43 -15.59 106.61 -12.66 78.79 C-10.77 60.85 -8.84 42.91 -6.65 25 C-5.83 18.18 -5.14 11.4 -4.75 4.55 C-4.25 1.27 -3.3 0.34 0 0 Z " fill="#005998" transform="translate(916.3977203369141,212.7527618408203)"/>
<path d="M0 0 C4.09 -0.1 8.18 -0.17 12.27 -0.22 C13.65 -0.24 15.04 -0.27 16.43 -0.3 C26.26 -0.54 34.44 -0.02 42.62 5.89 C43.22 6.53 43.82 7.16 44.44 7.81 C45.05 8.44 45.67 9.06 46.31 9.71 C52.01 17.44 51.94 25.84 51 35 C48.65 43.48 43.48 47.8 36.13 52.09 C31.47 54.08 26.54 54.13 21.54 54.13 C20.35 54.13 19.15 54.14 17.92 54.14 C16.07 54.13 16.07 54.13 14.19 54.12 C12.94 54.13 11.68 54.13 10.39 54.14 C8.61 54.13 8.61 54.13 6.79 54.13 C5.71 54.13 4.62 54.13 3.5 54.13 C1 54 1 54 0 53 C-0.09 51.34 -0.12 49.68 -0.11 48.02 C-0.11 46.96 -0.11 45.9 -0.11 44.81 C-0.11 43.65 -0.1 42.5 -0.1 41.31 C-0.1 40.13 -0.09 38.96 -0.09 37.75 C-0.09 33.98 -0.08 30.21 -0.06 26.44 C-0.06 23.89 -0.05 21.34 -0.05 18.79 C-0.04 12.53 -0.02 6.26 0 0 Z M11 10 C11 21.22 11 32.44 11 44 C24.07 45.05 24.07 45.05 35 40 C38.43 36.25 40.29 32.61 40.56 27.5 C40.26 22.74 38.83 18.84 36 15 C28.21 8.54 21.36 10 11 10 Z " fill="#00AAEA" transform="translate(715,610)"/>
<path d="M0 0 C6.23 5.71 8.97 12.58 9.38 21 C8.92 29.72 6.03 35.72 0.13 42.09 C-5.97 47.55 -11.37 48.2 -19.31 48.25 C-20.05 48.27 -20.78 48.29 -21.54 48.31 C-29.75 48.37 -35.18 45.43 -41.2 39.9 C-47.26 33.5 -48.39 26.38 -48.27 17.84 C-47.5 9.82 -42.9 3.28 -37 -2 C-25.33 -9.67 -10.86 -8.69 0 0 Z M-30.87 7.66 C-35.32 12.67 -36.37 16.71 -36.27 23.36 C-35.67 29.22 -33.45 32.81 -28.94 36.5 C-24.19 38.79 -19.14 38.77 -14 38 C-9.55 35.81 -6.81 33.06 -4 29 C-2.2 23.6 -2.3 18.06 -4.12 12.69 C-7.73 7.52 -11.66 4.32 -17.86 3.1 C-22.83 2.87 -27.14 4.35 -30.87 7.66 Z " fill="#00AAEA" transform="translate(825,616)"/>
<path d="M0 0 C6.02 4.97 10.58 10.69 11.76 18.52 C12.62 27.63 10.83 34.59 6.01 42.34 C-1.26 49.41 -8.38 50.87 -18.26 50.91 C-25.88 50.77 -31.37 49.08 -37.06 43.84 C-42.43 37.99 -44.81 32.26 -44.74 24.27 C-44.73 23.52 -44.73 22.77 -44.72 22 C-44.49 14.65 -42.56 9.22 -37.59 3.7 C-27.52 -5.67 -11.68 -7.7 0 0 Z M-28.05 10.27 C-31.88 14.21 -33.08 18.07 -33.68 23.46 C-33.42 29.38 -30.9 33.98 -26.61 37.96 C-21.61 41.25 -17.12 40.96 -11.24 40.52 C-6.43 39.01 -3.9 36.55 -1.21 32.41 C1.5 27.17 0.9 22.1 -0.52 16.6 C-2.13 11.94 -4.34 9.98 -8.68 7.77 C-9.85 7.36 -11.03 6.95 -12.24 6.52 C-13.04 6.23 -13.85 5.95 -14.68 5.65 C-19.69 5.4 -23.87 7.67 -28.05 10.27 Z " fill="#00AAEA" transform="translate(539.23828125,613.4765625)"/>
<path d="M0 0 C3.4 -0.35 6.61 -0.48 10 0 C12.24 2.18 12.87 3.21 14 6 C14.33 6.8 14.66 7.59 15 8.41 C15.57 9.79 15.57 9.79 16.15 11.2 C18.21 16.18 20.36 21.11 22.55 26.03 C23.17 27.43 23.79 28.83 24.42 30.23 C25.37 32.39 26.33 34.54 27.29 36.69 C28.24 38.8 29.18 40.91 30.11 43.03 C30.4 43.67 30.69 44.31 30.99 44.98 C32.45 48.3 33 50.29 33 54 C29.6 54.35 26.39 54.52 23 54 C19.8 50.56 18.76 47.41 17 43 C9.08 42.67 1.16 42.34 -7 42 C-7.99 44.97 -8.98 47.94 -10 51 C-13 54 -13 54 -15.26 54.29 C-16.06 54.26 -16.86 54.22 -17.69 54.19 C-18.9 54.15 -18.9 54.15 -20.14 54.11 C-20.75 54.07 -21.37 54.04 -22 54 C-23.16 50.51 -22.87 50.06 -21.43 46.84 C-21.07 46 -20.7 45.17 -20.32 44.31 C-19.91 43.41 -19.5 42.51 -19.08 41.58 C-18.67 40.65 -18.25 39.72 -17.83 38.76 C-16.5 35.77 -15.16 32.79 -13.81 29.81 C-12.93 27.82 -12.04 25.83 -11.15 23.84 C-7.57 15.82 -3.98 7.83 0 0 Z M4 15 C2.99 17.27 1.99 19.54 1 21.81 C0.71 22.46 0.43 23.1 0.13 23.76 C-1.14 26.68 -2 28.78 -2 32 C2.95 32 7.9 32 13 32 C12.02 29.54 11.04 27.08 10.06 24.62 C9.78 23.93 9.51 23.23 9.22 22.51 C7.72 18.71 7.72 18.71 6 15 C5.34 15 4.68 15 4 15 Z " fill="#00AAEA" transform="translate(670,610)"/>
<path d="M0 0 C3.34 -0.41 6.64 -0.13 10 0 C15.2 10.07 19.91 20.3 24.42 30.7 C25.52 33.23 26.63 35.75 27.74 38.27 C28.44 39.88 29.14 41.49 29.84 43.11 C30.34 44.23 30.34 44.23 30.85 45.38 C33.11 50.66 33.11 50.66 32 54 C28.7 54 25.4 54 22 54 C21.16 52.38 20.33 50.75 19.5 49.12 C19.04 48.22 18.57 47.32 18.09 46.38 C17 44 17 44 17 42 C9.08 42.33 1.16 42.66 -7 43 C-8.65 46.3 -10.3 49.6 -12 53 C-13 54 -13 54 -15.07 54.1 C-15.89 54.09 -16.71 54.07 -17.56 54.06 C-18.39 54.05 -19.22 54.04 -20.07 54.04 C-20.7 54.02 -21.34 54.01 -22 54 C-23.33 50.37 -22.68 48.5 -21.12 45.04 C-20.7 44.08 -20.27 43.12 -19.84 42.13 C-19.37 41.12 -18.91 40.11 -18.44 39.06 C-17.98 38.03 -17.51 36.99 -17.04 35.92 C-15.7 32.94 -14.36 29.97 -13 27 C-12.67 26.28 -12.35 25.57 -12.01 24.83 C-10.79 22.15 -9.56 19.47 -8.31 16.8 C-6.52 12.97 -4.8 9.11 -3.08 5.24 C-2 3 -2 3 0 0 Z M4 14 C1.69 19.94 -0.62 25.88 -3 32 C1.95 32 6.9 32 12 32 C11.14 27.72 10.02 24.22 8.44 20.19 C7.75 18.45 7.75 18.45 7.06 16.67 C6.71 15.79 6.36 14.91 6 14 C5.34 14 4.68 14 4 14 Z " fill="#00AAEA" transform="translate(402,610)"/>
<path d="M0 0 C-0.5 3.73 -0.87 5.81 -3 9 C-5.48 8.4 -7.88 7.72 -10.31 6.94 C-15.81 5.54 -20.96 5.04 -26 8 C-27.16 9.88 -27.16 9.88 -27 12 C-24.92 14.56 -23.02 15.56 -19.91 16.54 C-19.13 16.79 -18.34 17.04 -17.53 17.3 C-16.72 17.55 -15.9 17.8 -15.06 18.06 C-13.45 18.57 -11.84 19.08 -10.22 19.6 C-9.51 19.82 -8.79 20.04 -8.06 20.27 C-2.87 22.11 -0.67 24.03 2 29 C3.45 33.47 3.35 36.94 1.44 41.25 C-1.24 45.98 -4.89 48.3 -10 50 C-28.63 50.97 -28.63 50.97 -37 47 C-38.72 45.39 -38.72 45.39 -40 44 C-39.34 41.69 -38.68 39.38 -38 37 C-35.88 36.31 -35.88 36.31 -33 36 C-32.13 36.45 -31.27 36.91 -30.38 37.38 C-25.04 39.94 -18.96 40.87 -13.21 39.18 C-10.72 38.18 -10.72 38.18 -10.19 35.38 C-10.13 34.59 -10.06 33.81 -10 33 C-14.89 29.73 -19.88 28.58 -25.53 27.16 C-30.35 25.55 -34.72 22.97 -38 19 C-39.77 13.69 -39.86 8.86 -37.5 3.75 C-27.78 -6.94 -11.91 -8.19 0 0 Z " fill="#00AAEA" transform="translate(482,614)"/>
<path d="M0 0 C-0.5 3.73 -0.87 5.81 -3 9 C-5.74 8.52 -8.2 7.92 -10.81 6.94 C-15.45 5.57 -19.73 5.3 -24.44 6.75 C-26.14 7.92 -26.14 7.92 -26.88 9.94 C-27.23 12.31 -27.23 12.31 -25 15 C-22.24 15.93 -19.56 16.72 -16.75 17.44 C-9.95 19.17 -5.01 21.38 0.38 26.06 C2.92 30.66 3.07 34.89 2 40 C-0.89 45 -4.4 48.4 -10 50 C-19.17 50.98 -28.81 50.97 -37.38 47.36 C-39 46 -39 46 -39.83 43.53 C-40.05 40.2 -38.9 38.66 -37 36 C-33.63 36.61 -30.54 37.48 -27.31 38.62 C-22.09 40.23 -17.31 40.36 -12 39 C-11.34 38.34 -10.68 37.68 -10 37 C-9.93 34.45 -9.93 34.45 -11 32 C-13.21 30.62 -13.21 30.62 -16 29.88 C-16.99 29.55 -17.99 29.23 -19.01 28.9 C-20.49 28.46 -20.49 28.46 -22 28 C-34.61 24.01 -34.61 24.01 -37.81 19.38 C-39.32 15.09 -39.73 11.49 -39 7 C-36.03 1.18 -32.45 -2.18 -26.25 -4.25 C-17.11 -6.15 -7.9 -5.27 0 0 Z " fill="#00AAEA" transform="translate(884,614)"/>
<path d="M0 0 C2.56 1.8 4.81 3.76 7 6 C4.42 11.29 4.42 11.29 2 13 C-1.12 12.83 -3.15 11.92 -5.94 10.5 C-10.66 8.19 -14.05 7.47 -19.06 9.12 C-22.86 10.71 -25.36 12.8 -28 16 C-29.97 21.91 -29.74 28.58 -27.94 34.5 C-24.67 38.72 -21.51 40.64 -16.31 41.38 C-10.13 41.63 -7.04 40.72 -2 37 C1.53 37 2.67 37.71 5.31 40.06 C5.87 40.7 6.43 41.34 7 42 C5.23 46.51 2.13 48.9 -2.12 51.09 C-6.05 52.33 -9.71 52.37 -13.81 52.38 C-14.58 52.4 -15.35 52.42 -16.14 52.45 C-23.19 52.48 -27.84 49.99 -33.69 46.31 C-39.54 40.46 -42.11 33.53 -42.31 25.38 C-42.24 17.86 -40.45 11.89 -35.56 6.12 C-34.72 5.42 -33.87 4.72 -33 4 C-32.28 3.3 -31.56 2.6 -30.81 1.88 C-21.35 -4.43 -10.2 -4.51 0 0 Z " fill="#00AAEA" transform="translate(604,612)"/>
<path d="M0 0 C1.65 -0.03 3.29 -0.05 4.94 -0.06 C5.85 -0.07 6.77 -0.09 7.71 -0.1 C10 0 10 0 11 1 C11.1 2.62 11.13 4.25 11.13 5.87 C11.13 6.91 11.14 7.95 11.14 9.02 C11.14 10.15 11.13 11.27 11.13 12.44 C11.13 13.59 11.13 14.74 11.14 15.92 C11.14 18.36 11.13 20.8 11.13 23.24 C11.13 26.98 11.13 30.73 11.14 34.48 C11.14 36.84 11.13 39.2 11.13 41.56 C11.13 42.69 11.14 43.82 11.14 44.98 C11.14 46.02 11.13 47.06 11.13 48.13 C11.13 49.51 11.13 49.51 11.13 50.91 C11 53 11 53 10 54 C8 54.17 8 54.17 5.56 54.19 C4.76 54.2 3.96 54.22 3.13 54.23 C1 54 1 54 -1 52 C-1.25 49.87 -1.25 49.87 -1.24 47.21 C-1.25 46.22 -1.25 45.23 -1.25 44.2 C-1.25 43.12 -1.24 42.05 -1.23 40.94 C-1.23 39.84 -1.23 38.73 -1.23 37.6 C-1.23 35.26 -1.22 32.93 -1.21 30.6 C-1.19 27.01 -1.19 23.43 -1.19 19.85 C-1.18 17.59 -1.17 15.33 -1.17 13.06 C-1.17 11.99 -1.17 10.91 -1.16 9.8 C-1.16 8.8 -1.15 7.81 -1.15 6.79 C-1.14 5.91 -1.14 5.03 -1.13 4.13 C-1 2 -1 2 0 0 Z " fill="#00AAEA" transform="translate(625,610)"/>
<path d="M0 0 C4.62 0 9.24 0 14 0 C14 0.33 14 0.66 14 1 C9.38 1 4.76 1 0 1 C0 0.67 0 0.34 0 0 Z " fill="#FBFFFF" transform="translate(456,665)"/>
<path d="M0 0 C4.29 0 8.58 0 13 0 C13 0.33 13 0.66 13 1 C8.71 1 4.42 1 0 1 C0 0.67 0 0.34 0 0 Z " fill="#FBFFFF" transform="translate(858,665)"/>
<path d="M0 0 C3.96 0 7.92 0 12 0 C12 0.33 12 0.66 12 1 C8.04 1 4.08 1 0 1 C0 0.67 0 0.34 0 0 Z " fill="#FBFFFF" transform="translate(584,665)"/>
<path d="M0 0 C3.96 0 7.92 0 12 0 C12 0.33 12 0.66 12 1 C8.04 1 4.08 1 0 1 C0 0.67 0 0.34 0 0 Z " fill="#FBFFFF" transform="translate(517,665)"/>
<path d="M0 0 C3.63 0 7.26 0 11 0 C11 0.33 11 0.66 11 1 C7.37 1 3.74 1 0 1 C0 0.67 0 0.34 0 0 Z " fill="#FBFFFF" transform="translate(800,665)"/>
<path d="M0 0 C0.33 0 0.66 0 1 0 C1 3.63 1 7.26 1 11 C0.67 11 0.34 11 0 11 C0 7.37 0 3.74 0 0 Z " fill="#FBFFFF" transform="translate(1253,111)"/>
<path d="" fill="#00AAEA" transform="translate(0,0)"/>
</svg>
